<?xml version="1.0" encoding="utf-8"?>
<!-- Generator: Adobe Illustrator 27.5.0, SVG Export Plug-In . SVG Version: 6.00 Build 0)  -->
<svg version="1.1" id="Слой_1" xmlns="http://www.w3.org/2000/svg" xmlns:xlink="http://www.w3.org/1999/xlink" x="0px" y="0px"
	 viewBox="0 0 2670 2000.848" style="enable-background:new 0 0 2670 2000.848;" xml:space="preserve">
<g>
	<rect x="-0.001" y="0" style="fill:#FFFFFF;" width="2670" height="2000"/>
	<g>
		<path style="fill:#E3EAFF;" d="M404.988,1941.098c-181.583-197.715-429.755-401.864-332.44-710.252
			c64.007-202.837,220.947-259.375,351.399-384.451c64.381-61.726,23.889-151.575,22.692-240.75
			c-2.728-228.366,252.128-405.572,486.433-401.875c253.789,4.005,363.65,259.155,576.541,272.839
			c83.597,1.282,158.452-47.779,232.415-86.751c219.157-115.475,566.911-41.836,584.485,237.424
			c4.536,150.813-167.11,393.447,4.866,472.767c137.063,63.217,275.527,86.503,300.229,312.611
			c32.33,295.947-138.589,458.373-361.307,534.537L404.988,1941.098z"/>
		<g>
			<path style="fill:#FFFFFF;" d="M523.738,815.649h252.68c31.277,0,56.633,25.356,56.633,56.633v117.792
				c0,31.277-25.355,56.631-56.633,56.631h-1.875l20.28,67.941c0.893,2.988-2.56,5.373-5.039,3.481l-93.622-71.423H523.738
				c-31.277,0-56.632-25.354-56.632-56.631V872.282C467.106,841.005,492.461,815.649,523.738,815.649z"/>
			<path style="fill:#E3EAFF;" d="M776.301,914.56H533.706c-15.482,0-28.032-12.55-28.032-28.032l0,0
				c0-15.481,12.551-28.032,28.032-28.032h242.595c15.481,0,28.031,12.55,28.031,28.032l0,0
				C804.332,902.01,791.782,914.56,776.301,914.56z"/>
			<path style="fill:#E3EAFF;" d="M776.301,1000.167H533.706c-15.482,0-28.032-12.549-28.032-28.031l0,0
				c0-15.482,12.551-28.032,28.032-28.032h242.595c15.481,0,28.031,12.55,28.031,28.032l0,0
				C804.332,987.618,791.782,1000.167,776.301,1000.167z"/>
		</g>
		<g>
			<path style="fill:#FFFFFF;" d="M2070.095,497.698h-275.561c-34.11,0-61.762,27.651-61.762,61.761v128.458
				c0,34.108,27.651,61.76,61.762,61.76h2.045l-22.117,74.093c-0.973,3.26,2.791,5.861,5.496,3.798l102.1-77.891h188.037
				c34.109,0,61.762-27.651,61.762-61.76V559.458C2131.856,525.349,2104.204,497.698,2070.095,497.698z"/>
			<path style="fill:#E3EAFF;" d="M2067.771,606.269h-277.453c-13.762,0-24.917-11.155-24.917-24.916v-6.232
				c0-13.76,11.155-24.916,24.917-24.916h277.453c13.761,0,24.916,11.156,24.916,24.916v6.232
				C2092.687,595.114,2081.531,606.269,2067.771,606.269z"/>
			<path style="fill:#E3EAFF;" d="M1932.335,691.032h-129.922c-15.482,0-28.032-12.551-28.032-28.031V663
				c0-15.481,12.55-28.031,28.032-28.031h129.922c15.481,0,28.031,12.55,28.031,28.031v0.001
				C1960.366,678.482,1947.816,691.032,1932.335,691.032z"/>
		</g>
		<g>
			<path style="fill:#FFFFFF;" d="M231.167,1449.487c10.445-7.892,22.98-11.838,37.605-11.838c31.568,0,48.28,17.177,48.28,41.317
				c0,13.928-6.73,28.087-20.426,42.246c-17.409,18.338-29.944,27.391-37.836,27.391c-7.66,0-13.231-6.035-13.231-13.23
				c0-6.5,6.035-12.999,16.48-22.516c0.697-0.697,1.393-1.394,1.857-1.625c11.838-10.91,15.552-16.945,15.552-24.373
				c0-9.285-6.267-14.392-15.319-14.392c-4.179,0-9.053,0.929-14.856,2.786c-5.803,1.855-9.982,2.785-12.534,2.785
				c-6.5,0-13.928-5.571-13.928-14.857C222.811,1458.309,225.597,1453.666,231.167,1449.487z M262.968,1604.313
				c-14.159,0-23.677-10.678-23.677-23.676c0-11.143,9.518-21.819,23.677-21.819c12.303,0,21.819,10.677,21.819,21.819
				C284.787,1593.403,275.734,1604.313,262.968,1604.313z"/>
		</g>
		<g>
			<path style="fill:#FFFFFF;" d="M2127.515,928.616c6.869-5.19,15.113-7.785,24.73-7.785c20.76,0,31.751,11.296,31.751,27.172
				c0,9.159-4.427,18.471-13.433,27.783c-11.449,12.059-19.693,18.012-24.883,18.012c-5.037,0-8.701-3.969-8.701-8.7
				c0-4.274,3.969-8.549,10.838-14.808c0.459-0.458,0.916-0.916,1.222-1.068c7.785-7.174,10.228-11.144,10.228-16.028
				c0-6.107-4.121-9.464-10.075-9.464c-2.747,0-5.953,0.611-9.77,1.832c-3.816,1.221-6.563,1.831-8.243,1.831
				c-4.274,0-9.159-3.664-9.159-9.769C2122.02,934.417,2123.852,931.364,2127.515,928.616z M2148.429,1030.436
				c-9.313,0-15.57-7.022-15.57-15.571c0-7.327,6.258-14.35,15.57-14.35c8.09,0,14.35,7.022,14.35,14.35
				C2162.778,1023.26,2156.824,1030.436,2148.429,1030.436z"/>
		</g>
		<g>
			<g>
				<path style="fill:#FFFFFF;" d="M2584.113,1492.771H2294.29c-5.124,0-9.277-4.154-9.277-9.277v-249.479
					c0-5.123,4.153-9.277,9.277-9.277s9.277,4.154,9.277,9.277v240.199h280.546c5.124,0,9.278,4.154,9.278,9.279
					C2593.392,1488.617,2589.237,1492.771,2584.113,1492.771z"/>
			</g>
			<g>
				<g>
					<path style="fill:#FFFFFF;" d="M2316.229,1431.788c-2.322,0-4.646-0.866-6.447-2.606c-3.685-3.562-3.784-9.436-0.223-13.119
						l93.67-96.896c3.085-3.191,7.997-3.75,11.721-1.336l44.295,28.732l46.709-54.273c3.343-3.884,9.201-4.322,13.085-0.98
						c3.884,3.343,4.323,9.201,0.979,13.084l-51.993,60.414c-3.027,3.518-8.188,4.258-12.081,1.732l-44.684-28.984l-88.359,91.404
						C2321.081,1430.842,2318.656,1431.788,2316.229,1431.788z"/>
				</g>
				<g>
					<g>
						<polygon style="fill:#FFFFFF;" points="2520.222,1332.07 2507.005,1305.291 2478.556,1296.213 2541.89,1264.756 						"/>
					</g>
				</g>
			</g>
		</g>
		<g>
			<path style="fill:#FFFFFF;" d="M637.009,588.077c-30.956,0-56.142-25.186-56.142-56.142c0-30.957,25.185-56.143,56.142-56.143
				c30.957,0,56.143,25.185,56.143,56.143C693.151,562.891,667.966,588.077,637.009,588.077z M637.009,491.255
				c-22.43,0-40.679,18.248-40.679,40.679c0,22.43,18.249,40.679,40.679,40.679c22.431,0,40.68-18.249,40.68-40.679
				C677.688,509.503,659.44,491.255,637.009,491.255z"/>
		</g>
		<g>
			<path style="fill:#E3EAFF;" d="M2349.808,1034.921c-22.676,0-41.123-18.447-41.123-41.123c0-22.675,18.447-41.122,41.123-41.122
				c22.675,0,41.122,18.447,41.122,41.122C2390.93,1016.474,2372.482,1034.921,2349.808,1034.921z M2349.808,964.002
				c-16.43,0-29.797,13.367-29.797,29.796c0,16.431,13.367,29.796,29.797,29.796s29.795-13.365,29.795-29.796
				C2379.603,977.369,2366.237,964.002,2349.808,964.002z"/>
		</g>
		<g>
			<path style="fill:#FFFFFF;" d="M190.973,1260.348c-20.359,0-36.924-16.564-36.924-36.924s16.564-36.923,36.924-36.923
				c20.359,0,36.923,16.563,36.923,36.923S211.332,1260.348,190.973,1260.348z M190.973,1196.67
				c-14.753,0-26.754,12.002-26.754,26.754s12.001,26.754,26.754,26.754c14.752,0,26.753-12.002,26.753-26.754
				S205.725,1196.67,190.973,1196.67z"/>
		</g>
		<circle style="fill:#FFFFFF;" cx="2150.175" cy="424.317" r="20.089"/>
		<path style="fill:#E3EAFF;" d="M409.513,796.24c0,21.814-17.685,39.498-39.498,39.498c-21.814,0-39.499-17.684-39.499-39.498
			c0-21.814,17.685-39.498,39.499-39.498C391.828,756.742,409.513,774.426,409.513,796.24z"/>
		<path style="fill:#E3EAFF;" d="M2290.296,346.435c0,16.399-13.295,29.692-29.693,29.692c-16.399,0-29.693-13.294-29.693-29.692
			c0-16.399,13.294-29.694,29.693-29.694C2277.001,316.741,2290.296,330.035,2290.296,346.435z"/>
		<path style="fill:#E3EAFF;" d="M2435.604,1059.441c0,13.998-11.347,25.345-25.344,25.345c-13.998,0-25.346-11.347-25.346-25.345
			s11.348-25.346,25.346-25.346C2424.258,1034.096,2435.604,1045.443,2435.604,1059.441z"/>
		<path style="fill:#FFFFFF;" d="M2216.208,499.978c0,17.453-14.148,31.602-31.6,31.602c-17.453,0-31.601-14.148-31.601-31.602
			c0-17.451,14.147-31.6,31.601-31.6C2202.06,468.378,2216.208,482.526,2216.208,499.978z"/>
		<path style="fill:#FFFFFF;" d="M762.873,442.59c0,17.702-14.35,32.053-32.053,32.053c-17.703,0-32.053-14.351-32.053-32.053
			c0-17.703,14.35-32.053,32.053-32.053C748.523,410.537,762.873,424.887,762.873,442.59z"/>
	</g>
	<rect x="-0.001" y="1385.741" style="fill:#B3C8F2;" width="2670" height="615.107"/>
	<g>
		<g>
			<g>
				<g>
					<g>
						<g>
							<path style="fill:#F37A50;" d="M2579.786,1099.502c-4.823,4.287-14.595,9.908-15.037,16.248l-16.061-7.089
								c-2.283-20.54,16.02-39.877,17.95-41.688c5.015-4.704,7.079-7.226,8.068-6.834c0.99,0.392,6.1,4.161-0.977,11.239
								c-8.883,8.884,3.828,11.627,17.838-11.479c3.507-5.786,14.806-10.719,14.29-4.407
								C2605.291,1062.448,2601.735,1079.992,2579.786,1099.502z"/>
						</g>
					</g>
				</g>
			</g>
		</g>
		<path style="fill:#F37A50;" d="M2484.996,1356.646l-57.646,22.896c0,0,5.308,49.735,16.17,90.188
			c8.942,33.301,38.811,82.619,53.754,124.818c2.764,7.803,1.673,22.018,2.844,28.251c4.231,22.505,52.018,21.861,52.018,21.861
			c-4.526-0.588-18.584-48.71-21.771-56.002c-10.492-24.001-20.926-85.84-28.74-139.691
			C2494.689,1401.17,2484.996,1356.646,2484.996,1356.646z"/>
		<path style="fill:#F37A50;" d="M2321.733,1377.826c0,0-54.806,51.197-81.86,81.092c-22.271,24.606-46.125,67.695-72.462,101.802
			c-4.871,6.307-16.939,12.84-21.37,17.039c-15.996,15.164,3.847,10.4,4.94,18.871c1.093,8.472,10.236,10.812,10.236,10.812
			l25.404,20.449c0,0,0.116-2.125-3.783-8.482c-1.48-3.418,2.09-28.806,6.601-34.996c53.261-73.1,204.558-140.415,204.558-140.415
			L2321.733,1377.826z"/>
		<path style="fill:#18161A;" d="M2167.555,1608.375c-10.497-6.676-12.021-18.098-15.94-29.107
			c-4.167,6.132-6.392,8.182-10.899,14.043c1.987,5.898,2.239,11.375,2.167,14.521c-0.041,1.815,0.698,3.546,2.043,4.763
			l21.046,19.021C2165.971,1631.615,2170.911,1610.51,2167.555,1608.375z"/>
		<path style="fill:#E62552;" d="M2182.576,1618.625c0,0-1.342,0.559-2.71-1.392c-4.096-5.834-6.601-16.405-9.87-26.974
			c-2.47-7.986-5.118-19.482-10.233-22.526c-3.685-2.193-15.536,1.796-20.721,10.354c-2.184,3.604-3.137,6.88-2.861,13.289
			c0.274,6.41-7.754,20.874-7.754,20.874l3.925,2.836c0,0,17.638-22.857,25.643-8.318c5.779,10.494,0.34,21.577,9.508,25.67
			c7.883,2.836,18.496,4.701,20.742-0.828C2189.509,1628.492,2187.598,1625.684,2182.576,1618.625z"/>
		<path style="fill:#18161A;" d="M2526.165,1638.655c-12.89-0.936-19.909-10.632-28.916-18.773
			c-0.79,7.661-1.817,10.633-3.054,18.214c4.723,4.417,7.651,9.302,9.136,12.215c0.857,1.681,2.383,2.901,4.214,3.351l31.25,7.066
			C2538.795,1660.728,2530.288,1638.955,2526.165,1638.655z"/>
		<path style="fill:#E62552;" d="M2556.834,1645.623c-5.163-2.72-6.322-3.615-6.322-3.615c-8.184,1.299-21.401-11.656-31.036-21.126
			c-6.19-6.088-14.517-15.508-20.696-15.774c-4.45-0.191-13.081,12.945-15.094,19.251c-1.333,4.172-0.503,8.871,0.933,15.211
			c2.156,9.521,4.587,21.68,4.587,21.68l4.985,0.662c0,0,4.876-29.594,19.359-20.24c10.455,6.753,10.352,16.49,24.422,19.02
			C2552.959,1663.386,2578.383,1656.979,2556.834,1645.623z"/>
		<path style="fill:#F37A50;" d="M2496.006,916.485c-0.638-16.197-7.909-25.586-7.909-25.586l-1.433-1.302l-76.868-16.252
			c0,0,2.365,65.719,3.106,67.685c0.742,1.965,23.881,59.207,23.881,59.207s17.957,14.197,33.304,0.601
			C2498.046,976.065,2496.643,932.681,2496.006,916.485z"/>
		<path style="fill:#1D47CC;" d="M2336.573,1078.924l-51.747-1.267c-2.49,4.075-37.157,75.792-34.728,93.292
			c2.43,17.499,32.422,61.176,51.921,73.475c19.5,12.3,25.857-19.898,25.857-19.898l-31.563-55.635L2336.573,1078.924z"/>
		<path style="fill:#4364CC;" d="M2496.25,1341.475c-10.039-62.238-41.448-161.359-41.448-161.359
			c-4.698-32.024,37.53-83.134,28.341-103.008l-103.809-63.71l-52.029,29.807c0,0,36.415,119.237-15.089,172.785
			c-36.641,38.095-11.963,120.606-23.432,153.169c-17.319,49.172-90.116,85.136-90.116,85.136
			c41.24,39.57,93.711,35.974,138.915,41.625c45.207,5.651,78.878-2.375,96.902-5.063c28.563-4.259,117.65-48.864,117.65-48.864
			C2554.386,1438.141,2511.086,1433.46,2496.25,1341.475z"/>
		<path style="fill:#1D47CC;" d="M2548.398,1093.488l-48.106,36.918c0,0-13.058-65.137-18.647-82.952
			c-7.638-24.343-31.972-31.386-31.972-31.386s-50.896,14.971-36.574,81.42c3.808,15.838,36.625,70.889,61.24,83.416
			c45.326,23.068,91.445-63.887,92.676-64.753C2573.896,1100.774,2548.398,1093.488,2548.398,1093.488z"/>
		<path style="fill:#062440;" d="M2483.824,870.572c-21.69-5.299-39.178-39.948-77.522-29.404
			c-50.239,13.814-37.842,64.245-74.217,74.638c-31.18,8.908-132.072,6.871-100.137,75.086c-23.09-2.748-60.307,47.032-2.634,72.447
			c-12.233,14.323,3.629,65.671,73.42,47.255c8.862,52.669,81.556,15.073,98.03-24.228c5.68-13.551,8.375-32.714,9.252-50.246
			c29.451,38.277,56.242-50.791,62.982-95.839C2484.998,943.849,2549.87,886.712,2483.824,870.572z"/>
	</g>
	<g>
		<g id="c_5_">
			<path style="fill:#181630;" d="M787.059,1319.283c0,0-9.318-32.944-21.485-35.645c-12.166-2.701-19.148,11.938-43.682,22.683
				c-24.532,10.745-53.398,37.887-32.483,58.218c12.931,5.24,36.154-6.633,45.227-11.805c9.074-5.172,28.886-9.412,28.886-9.412
				L787.059,1319.283z"/>
			<path style="fill:#F37A50;" d="M772.593,1310.59c5.054,2.807,23.632,14.355,23.632,14.355l-22.512,30.99
				c0,0-5.005-5.848-16.369-14.009C733.769,1324.997,760.571,1303.912,772.593,1310.59z"/>
			<path style="fill:#201D40;" d="M931.726,1410.755c-39.927-49.101-144.002-98.716-144.002-98.716s-13.225,23.533-19.215,45.236
				c60.947,71.488,95.669,79.134,123.442,100.664C919.657,1473.87,951.979,1440.547,931.726,1410.755z"/>
			<polygon style="fill:#F37A50;" points="1101.968,1574.006 1112.433,1602.354 1141.565,1587.36 1135.817,1565.441 			"/>
			<g>
				<polygon id="v-2_5_" style="fill:#F37A50;" points="1002.5,997.476 1002.523,997.482 1022.215,1002.375 1015.293,1050.019 
					989.315,1056.54 967.717,1038.527 983.101,992.808 				"/>
				<g>
					<g>
						<path style="fill:#F37A50;" d="M970.81,951.57c-4.951,33.246,12.202,63.348,38.313,67.238
							c26.11,3.888,51.292-19.909,56.243-53.155c4.952-33.245-12.201-63.348-38.313-67.237
							C1000.942,894.526,975.762,918.324,970.81,951.57z"/>
						<g>
							<path d="M996.293,948.101c0.402-0.114,0.846-0.098,1.262,0.077c6.046,2.54,12.333-1.622,12.396-1.664
								c0.873-0.59,2.063-0.362,2.655,0.511c0.591,0.873,0.367,2.059-0.503,2.653c-0.325,0.221-8.042,5.384-16.03,2.028
								c-0.975-0.41-1.433-1.531-1.022-2.505C995.285,948.643,995.753,948.254,996.293,948.101z"/>
						</g>
						<g>
							<path d="M1058.271,958.761c0.087,0.186,0.145,0.389,0.169,0.604c0.113,1.05-0.646,1.995-1.696,2.108
								c-8.157,0.886-12.303-5.46-12.476-5.731c-0.566-0.889-0.307-2.073,0.585-2.642c0.888-0.566,2.066-0.308,2.638,0.577
								c0.136,0.208,3.103,4.615,8.84,3.991C1057.165,957.579,1057.933,958.041,1058.271,958.761z"/>
						</g>
						<path style="fill:#DE623C;" d="M1029.329,972.252c1.865,3.324,3.396,6.643,5.436,8.84c0.688,0.74,0.662,1.91-0.044,2.633
							c-2.914,2.986-9.464,4.341-13.409,4.907c-0.576,0.082-0.82-0.708-0.299-0.967c4.412-2.188,6.563-4.09,7.545-5.188
							c0.488-0.545,0.677-1.29,0.524-2.006c-0.348-1.644-1.023-4.989-1.362-7.698
							C1027.604,971.838,1028.867,971.43,1029.329,972.252z"/>
						<path d="M1002.087,959.583c-0.455,2.624,1.304,5.119,3.927,5.574c2.623,0.455,5.118-1.303,5.573-3.927
							c0.456-2.623-1.303-5.118-3.926-5.574C1005.037,955.201,1002.542,956.959,1002.087,959.583z"/>
						<path d="M1041.323,966.386c-0.454,2.623,1.304,5.119,3.927,5.573c2.623,0.455,5.119-1.303,5.573-3.926
							c0.455-2.623-1.303-5.119-3.926-5.574C1044.273,962.005,1041.778,963.763,1041.323,966.386z"/>
						<path d="M1061.358,981.224c0,0-10.19,15.008-15.418,18.629c1.354-7.865-16.75-7.876-24.201-9.327
							c-13.493-2.629-23.496-18.148-32.9-2.138c-17.039-3.846-16.549-44.258-16.549-44.258
							c-20.908,33.908-7.409,74.246,36.428,85.322C1034.738,1036.028,1058.47,1009.519,1061.358,981.224z"/>
						<path style="fill:#FFFFFF;" d="M1019.177,995.782c-6.071-1.934-12.087-0.069-13.436,4.165
							c-1.35,4.233,4.592,6.644,10.663,8.579c6.072,1.935,9.974,2.659,11.323-1.575
							C1029.076,1002.717,1025.248,997.717,1019.177,995.782z"/>
					</g>
				</g>
			</g>
			<path style="fill:#181630;" d="M1137.679,1573.752c23.207,19.902,60.662-9.019,67.032,23.883
				c-47.757,28.145-91.762,25.356-91.762,25.356c-1.702-7.499-5.143-28.854-5.303-36.162L1137.679,1573.752z"/>
			<path style="fill:#201D40;" d="M1038.5,1221.352l-93.081,36.355c0,0,88.714,128.948,138.427,161.129
				c8.654,5.601,50.877-8.489,51.873-17.729C1139.352,1367.428,1038.5,1221.352,1038.5,1221.352z"/>
			<path style="fill:#201D40;" d="M1077.845,1417.032c-8.749,62.677,17.282,165.069,17.282,165.069s34.019-12.657,53.988-23.057
				c-12.672-104.078-5.159-129.424-14.118-166.883C1119.826,1370.522,1085.859,1381.91,1077.845,1417.032z"/>
			<path style="fill:#2C2858;" d="M981.134,1246.994l-99.975-4.483c0,0-6.349,154.176,8.228,211.573
				c2.537,9.992,37.912,19.031,44.925,12.934C959.874,1444.79,981.134,1246.994,981.134,1246.994z"/>
			<g id="v_3_">
				<path id="h-5_1_" style="fill:#E62552;" d="M914.324,1031.531c0,0,43.434-3.11,56.92,1.38
					c33.874,27.88,44.992,13.254,44.992,13.254c14.199,0.306,42.074,11.063,42.074,11.063
					c-9.117,54.731-3.404,187.628-3.404,187.628s-32.857,31.789-79.569,27.578c-45.193-4.074-95.554-14.059-95.554-14.059
					s3.199-74.476,9.37-116.101C896.252,1110.836,904.235,1072.783,914.324,1031.531z"/>
			</g>
			<g>
				<polygon style="fill:#96AFFF;" points="1071.242,1043.286 1073.969,1031.576 1173.357,1051.062 1100.028,1051.062 				"/>
				<polygon style="fill:#FFFFFF;" points="1047.606,1052.512 1047.606,1033.697 1119.118,1051.062 				"/>
				<rect x="1036.605" y="1051.062" style="fill:#3F964F;" width="109.197" height="158.368"/>
				
					<rect x="1145.803" y="1051.062" transform="matrix(-1 -1.224647e-16 1.224647e-16 -1 2319.1602 2260.4912)" style="fill:#0E6A41;" width="27.555" height="158.368"/>
				<rect x="1151.843" y="1064.296" style="fill:#3F964F;" width="14.546" height="132.726"/>
				<polygon style="fill:#FFFFFF;" points="1100.557,1046.555 1144.532,1038.324 1152.631,1051.062 1104.038,1051.062 				"/>
				<polygon style="fill:#FFFFFF;" points="1036.605,1067.318 1036.605,1109.211 1025.978,1072.399 				"/>
			</g>
			<g>
				<path style="fill:#F37A50;" d="M1127.938,1142.176c-8.698,5.168-21.926,11.752-24.279,7.059
					c-3.78-7.536-2.363-11.405-4.474-17.373c-1.871-5.289-10.255,2.119-14.162,26.302l-3.91,0.731l1.933,22.271l3.746-1.338
					c15.197,7.104,37.587,3.281,52.115-12.584C1145.117,1160.461,1139.537,1135.282,1127.938,1142.176z"/>
				<path style="fill:#C4204A;" d="M907.69,1036.194c-26.813,28.892-8.178,80.077,38.491,158.401
					c37.983,0.744,42.387-34.259,42.387-34.259s-12.653-59.098-18.322-80.954C956.639,1026.924,920.618,1022.266,907.69,1036.194z"
					/>
				<path style="fill:#C4204A;" d="M1085.023,1158.163l-101.11-0.666c0,0-27.598-5.085-37.732,37.099
					c17.279,13.691,56.644,21.071,136.864-13.43C1091.911,1171.008,1085.023,1158.163,1085.023,1158.163z"/>
			</g>
			<path d="M968.662,915.073c10.58-30.925,42.276-28.519,42.276-28.519s-5.167-4.88,0.321-13.21
				c3.139,4.578,7.878,8.161,13.146,9.907c35.504,11.768,54.42,26.888,45.104,38.708c-3.314,4.207,19.585,17.256-4.246,44.35
				c-0.449-4.651,1.946-20.24-3.299-26.254c-5.264-6.036-6.171,6.6-20.437-1.776c-14.395-8.453-21.46-19.132-35.167-18.06
				c-11.242,1.495-38.401,32.793-38.999,35.493C968.734,949.521,964.013,928.664,968.662,915.073z"/>
			<g>
				<path style="fill:#F37A50;" d="M978.595,950.32c4,6.817,2.719,14.997-2.86,18.27c-5.579,3.272-13.344,0.399-17.343-6.419
					c-4-6.818-2.719-14.998,2.86-18.27C966.831,940.629,974.596,943.502,978.595,950.32z"/>
				<g>
					<path style="fill:#DE623C;" d="M969.171,964.38c0.26-0.021,0.518-0.102,0.755-0.246c3.404-2.074,4.939-5.317,4.104-8.676
						c-0.854-3.439-3.932-6.082-7.317-6.285c-0.952-0.057-1.771,0.668-1.828,1.621c-0.058,0.953,0.668,1.771,1.621,1.828
						c1.854,0.112,3.686,1.724,4.17,3.669c0.465,1.87-0.44,3.607-2.548,4.891c-0.815,0.497-1.074,1.56-0.577,2.375
						C967.902,964.135,968.54,964.432,969.171,964.38z"/>
				</g>
			</g>
			<path id="c_20_" style="fill:#F37A50;" d="M1167.723,1095.323c0.338-0.479,0.758-0.861,1.211-1.201
				c-0.082-0.056-0.166-0.104-0.248-0.163c-4.807-3.388-6.729-8.93-4.298-12.375c0.399-0.566,0.898-1.03,1.463-1.412
				c-2.168-3.051-2.662-6.576-0.925-9.037c0.689-0.977,1.661-1.671,2.8-2.102c-2.363-2.905-2.871-6.725-0.927-9.48
				c2.433-3.445,7.73-3.895,11.832-1.002c4.103,2.893,5.456,8.031,3.023,11.479c-0.615,0.871-1.416,1.551-2.333,2.033
				c3.836,3.401,5.207,8.228,3.009,11.343c-0.4,0.565-0.899,1.031-1.463,1.413c2.168,3.051,2.661,6.576,0.924,9.037
				c-0.64,0.907-1.522,1.572-2.558,2.008c2.215,2.484,2.746,5.885,1.036,8.307c-2.055,2.911-6.528,3.29-9.992,0.847
				C1166.813,1102.574,1165.668,1098.234,1167.723,1095.323z"/>
		</g>
	</g>
	<g>
		<g>
			<path d="M1658.479,1878.436c-25.75,34.346-88.984,13.271-86.891,59.726c96.16-0.597,136.125,0,136.125,0
				c-0.127-10.669-2.027-35.995-4.245-45.909L1658.479,1878.436z"/>
			<path d="M1802.354,1879.335c-25.749,34.347-88.983,13.271-86.892,59.726c96.162-0.596,136.126,0,136.126,0
				c-0.126-10.668-2.028-35.994-4.245-45.908L1802.354,1879.335z"/>
			<path style="fill:#201D40;" d="M1613.964,1354.084c0,0-15.612,220.134-9.27,269.074c6.344,48.941,28.802,111.685,26.257,273.563
				c31.347,7.588,76.763,0,76.763,0s6.734-183.042-26.404-264.798c13.475-79.414,56.715-261.307,56.715-261.307L1613.964,1354.084z"
				/>
			<path style="fill:#2C2858;" d="M1673.3,1360.101c0,0,31.525,247.138,46.957,294.013c15.432,46.876,45.527,86.511,73.467,245.98
				c32.214,1.559,70.603-6.373,70.603-6.373s-12.738-195.907-62.91-241.908c-1.698-80.533,8.112-290.125,8.112-290.125
				L1673.3,1360.101z"/>
			<g>
				<g>
					<g>
						<path style="fill:#F37A50;" d="M1801.694,955.778c-17.088,42.699-58.127,66.435-91.662,53.014
							c-33.537-13.42-46.871-58.915-29.783-101.615c17.088-42.699,58.127-66.435,91.663-53.014
							C1805.448,867.583,1818.782,913.079,1801.694,955.778z"/>
						<path d="M1694.831,921.191c-1.98,2.848-5.896,3.551-8.744,1.569c-2.848-1.981-3.551-5.896-1.569-8.744
							c1.981-2.848,5.896-3.551,8.744-1.569C1696.11,914.428,1696.813,918.343,1694.831,921.191z"/>
						<path d="M1741.884,940.396c-2.145,3.083-6.383,3.844-9.466,1.7c-3.083-2.146-3.844-6.384-1.699-9.467
							c2.144-3.083,6.382-3.843,9.466-1.699C1743.268,933.074,1744.028,937.313,1741.884,940.396z"/>
						<path style="fill:#DE623C;" d="M1704.372,931.216c-8.494,6.696-19.113,14.774-19.113,14.774s-0.108,10.239,11.855,14.677
							c-4.33-3.927-8.129-9.152-3.623-15.185C1697.995,939.448,1704.372,931.216,1704.372,931.216z"/>
						<g>
							<path d="M1754.264,936.305c-1.417,0-2.702-0.969-3.046-2.408c-0.084-0.334-2.189-8.503-9.189-8.536
								c-1.73-0.008-3.128-1.419-3.119-3.15c0.008-1.73,1.43-3.128,3.148-3.119c9.561,0.046,14.16,8.753,15.258,13.35
								c0.402,1.684-0.638,3.374-2.321,3.776C1754.749,936.277,1754.505,936.305,1754.264,936.305z"/>
						</g>
						<g>
							<path d="M1701.411,907.904c-0.893,0-1.76-0.458-2.248-1.278c-0.049-0.08-1.738-2.78-4.538-3.277
								c-1.974-0.35-4.208,0.456-6.635,2.398c-1.126,0.901-2.771,0.718-3.671-0.408c-0.902-1.127-0.719-2.77,0.407-3.672
								c3.681-2.943,7.343-4.104,10.886-3.448c5.188,0.959,7.936,5.557,8.049,5.751c0.73,1.245,0.313,2.845-0.932,3.574
								C1702.313,907.788,1701.858,907.904,1701.411,907.904z"/>
						</g>
						<path d="M1789.772,960.234c-12.357-39.73,3.27-60.839,3.27-60.839c-10.608-2.126-14.73,1.545-14.73,1.545
							c-5.789-11.884-1.307-20.399-1.307-20.399c-21.93-8.546-32.848,5.653-52.633,10.438c-27.094,6.552-60.559-4.255-63.693-37.33
							c-0.453-4.788,4.812-7.887,8.809-5.212c3.708,2.48,8.631,4.487,14.758,4.314c0,0-5.676-6.402-5.967-15.26
							c-0.16-4.886,5.566-7.523,9.323-4.395c5.632,4.688,16.083,9.117,34.714,5.627c12.4-2.323,40.787-22.184,58.471-18.306
							c14.456,3.17,25.926,15.474,30.863,33.082c0,0,35.533,3.683,39.096,42.788c3.503,38.419-41.002,67.899-41.002,67.899
							L1789.772,960.234z"/>
						<path style="fill:#F37A50;" d="M1784.929,953.607c-9.41,5.332-13.5,15.896-9.137,23.597c4.363,7.7,15.527,9.62,24.938,4.288
							c9.41-5.332,13.5-15.896,9.137-23.597C1805.503,950.194,1794.338,948.275,1784.929,953.607z"/>
						<g>
							<path style="fill:#DE623C;" d="M1786.45,976.717c-0.293-0.203-0.543-0.476-0.725-0.809c-2.61-4.79-2.204-9.683,1.086-13.087
								c3.37-3.487,8.826-4.508,12.975-2.428c1.167,0.586,1.639,2.006,1.053,3.174c-0.584,1.167-2.006,1.639-3.173,1.054
								c-2.272-1.14-5.546-0.487-7.453,1.486c-1.832,1.895-1.95,4.572-0.335,7.538c0.625,1.147,0.202,2.583-0.945,3.208
								C1788.12,977.296,1787.161,977.212,1786.45,976.717z"/>
						</g>
						<path style="fill:#FFFFFF;" d="M1687.204,974.318c-0.921-1.505,0.387-3.378,2.113-3.014
							c4.391,0.925,11.662,2.303,18.666,2.928c7.002,0.625,14.404,0.558,18.889,0.424c1.764-0.052,2.719,2.022,1.547,3.34
							c-3.607,4.056-10.85,10.053-21.584,9.095C1696.101,986.133,1690.036,978.948,1687.204,974.318z"/>
					</g>
				</g>
			</g>
			<path style="fill:#201D40;" d="M1642.073,1030.263c0,0,1.602-4.349-136.781-3.231l-37.099,43.85
				c38.397,30.789,166.995,36.262,166.995,36.262L1642.073,1030.263z"/>
			<polygon style="fill:#95A6DB;" points="1692.356,1026.695 1736.003,1022.621 1778.229,1034.396 1730.651,1083.357 			"/>
			<path style="fill:#F37A50;" d="M1707.487,1049.166c17.787,14.604,21.424,24.697,59.209,5.178l5.667-58.097l-61.515-4.849
				L1707.487,1049.166z"/>
			<path style="fill:#95A6DB;" d="M1789.435,1057.783L1789.435,1057.783l-12.936-5.119l1.73-18.268l-35.879,28.815l-10.133,1.612
				l-9.684-3.389l-30.178-34.739l-1.547,18.285l-11.414,2.289l0,0l-41.158,6.665l-4.898,228.443l-16.238,77.723
				c54.615,18.165,115.688,22.698,175.729,14.424l-2.018-78.024l42.648-223.261L1789.435,1057.783z"/>
			<polygon style="fill:#2C2858;" points="1724.329,1087.9 1698.546,1262.322 1712.823,1282.156 1731.437,1267.857 
				1737.771,1089.348 			"/>
			<polygon style="fill:#2C2858;" points="1722.794,1067.307 1732.218,1064.823 1741.819,1069.013 1737.758,1089.693 
				1724.243,1088.48 			"/>
			<g>
				<path style="fill:#2C2858;" d="M1691.756,1028.156l-6.465,210.695l-27.888,135.673c0,0-44.104-4.447-71.2-30.231l34.728-102.137
					l11.873-213.438L1691.756,1028.156z"/>
				<polygon style="fill:#494C7F;" points="1691.756,1028.156 1685.328,1236.025 1653.226,1076.722 				"/>
			</g>
			<g>
				<path style="fill:#2C2858;" d="M1781.528,1041.635l-57.27,341.576c0,0,75.996,9.336,107.248-11.216l-16.959-112.285
					l20.729-190.63L1781.528,1041.635z"/>
				<polygon style="fill:#494C7F;" points="1781.528,1041.635 1748.059,1241.839 1807.993,1090.789 				"/>
			</g>
			<path style="fill:#F37A50;" d="M1403.097,840.755c3.047,10.659,3.957,22.151,17.475,27.897c0,0-2,35.365-0.506,64.38
				c0,0,32.712-36.887,32.707-36.917c-1.875-11.698-3.39-33.81-1.59-46.363c0.468-3.259,1.107-6.504,1.615-9.77
				c1.406-7.931,3.74-16.046-1.092-25.619c-18.668-36.981-12.383-49.152-14.955-50.956c-4.178-1.841-14.005,5.6-8.449,23.772
				c5.375,17.584,4.049,26.216,4.049,26.216s-14.107-2.665-19.116,2.271C1410.96,817.907,1399.536,828.295,1403.097,840.755z"/>
			<path style="fill:#201D40;" d="M1410.688,890.605c19.064-6.354,29.102-9.214,43.926-9.214
				c35.051,104.453,60.033,143.807,49.615,173.795c-8.686,25-36.176,23.001-49.615,4.268
				C1436.884,1034.744,1421.188,940.86,1410.688,890.605z"/>
			<polygon style="fill:#201D40;" points="1835.276,1069.08 1945.7,1241.839 2076.853,1315.893 2036.43,1356.139 1904.851,1298.463 
				1814.548,1171.051 			"/>
			<path style="fill:#FFFFFF;" d="M1732.218,1064.823c0,0-16.243,16.401-31.18,20.598l-17.662-46.702l8.98-12.023L1732.218,1064.823
				z"/>
			<path style="fill:#FFFFFF;" d="M1732.218,1064.823c0,0,9.26,15.907,27.02,25.817l25.698-42.678l-6.707-13.566L1732.218,1064.823z
				"/>
		</g>
		<g id="с_44_">
			<path id="с_47_" style="fill:#95A6DB;" d="M1852.413,1556.641H888.234c-22.661,0-41.031-12.361-41.031-27.61l0,0
				c0-15.249,18.37-27.61,41.031-27.61h964.179c22.66,0,41.031,12.361,41.031,27.61l0,0
				C1893.444,1544.279,1875.073,1556.641,1852.413,1556.641z"/>
			<g>
				<path style="fill:#95A6DB;" d="M1249.6,1945.709L1249.6,1945.709c-10.334,0-16.544-11.467-10.896-20.121l254.576-390.127
					l21.793,14.221l-254.576,390.127C1258.095,1943.49,1253.996,1945.709,1249.6,1945.709z"/>
			</g>
			<g>
				<path style="fill:#95A6DB;" d="M1491.046,1945.709L1491.046,1945.709c10.335,0,16.545-11.467,10.896-20.121l-254.576-390.127
					l-21.793,14.221l254.576,390.127C1482.552,1943.49,1486.651,1945.709,1491.046,1945.709z"/>
			</g>
		</g>
		<g id="с_6_">
			<path id="с_43_" style="fill:#768FDB;" d="M1890.794,1939.529L1890.794,1939.529c-6.883,0-12.463-5.58-12.463-12.463V1706.24
				h24.926v220.826C1903.257,1933.949,1897.677,1939.529,1890.794,1939.529z"/>
			<path id="с_42_" style="fill:#768FDB;" d="M1978.25,1939.529L1978.25,1939.529c-6.884,0-12.464-5.58-12.464-12.463V1706.24
				h24.928v220.826C1990.714,1933.949,1985.134,1939.529,1978.25,1939.529z"/>
			<path id="с_41_" style="fill:#768FDB;" d="M2093.007,1939.529L2093.007,1939.529c-6.883,0-12.464-5.58-12.464-12.463V1706.24
				h24.927v220.826C2105.47,1933.949,2099.89,1939.529,2093.007,1939.529z"/>
			<path id="с_40_" style="fill:#768FDB;" d="M2180.463,1939.529L2180.463,1939.529c-6.884,0-12.464-5.58-12.464-12.463V1706.24
				h24.928v220.826C2192.927,1933.949,2187.347,1939.529,2180.463,1939.529z"/>
			<path id="с_39_" style="fill:#95A6DB;" d="M2042.562,1378.514v262.785c0,2.99-2.424,5.414-5.414,5.414h-162.932
				c-16.438,0-29.765,13.326-29.765,29.764l0,0c0,16.438,13.326,29.764,29.765,29.764h168.346h29.764
				c16.439,0,29.765-13.325,29.765-29.764v-29.764v-268.199c0-16.438-13.325-29.764-29.765-29.764l0,0
				C2055.887,1348.75,2042.562,1362.076,2042.562,1378.514z"/>
			<rect id="с_38_" x="2072.325" y="1348.75" style="fill:#95A6DB;" width="128.82" height="302.789"/>
			<path id="с_9_" style="fill:#768FDB;" d="M2171.38,1378.514v262.785c0,2.99-2.424,5.414-5.414,5.414h-162.932
				c-16.438,0-29.764,13.326-29.764,29.764l0,0c0,16.438,13.326,29.764,29.764,29.764h168.346h29.766
				c16.438,0,29.764-13.325,29.764-29.764v-29.764v-268.199c0-16.438-13.326-29.764-29.764-29.764h-0.001
				C2184.706,1348.75,2171.38,1362.076,2171.38,1378.514z"/>
		</g>
		<g>
			<path style="fill:#2C2858;" d="M1976.261,1278.086c-27.492-9.916-69.953-31.6-41.733-71.221
				c28.221-39.621,27.499-22.328,17.343-70.455c-10.156-48.128,24.063-85.986,56.688-76.406
				c32.623,9.581,40.948,35.98,80.938,29.299c39.989-6.683,73.229,30.72,58.176,63.152c-15.053,32.432-21.482,48.049-7.407,66.002
				s77.495,37.291,51.044,80.301c-26.451,43.009-38.574,40.369-29.387,62.416s-12.004,47.147-48.771,43.72
				s-70.051-17.33-83.535-58.383C2016.13,1305.459,1976.261,1278.086,1976.261,1278.086z"/>
			<path style="fill:#F37A50;" d="M1879.007,1903.247l-21.721,6.488l-16.359-16.723c0.782-1.16,0.03-12.364-2.498-24.302
				l40.578-6.734C1880.625,1874.342,1879.007,1890.76,1879.007,1903.247z"/>
			<path style="fill:#E62552;" d="M1857.446,1905.828c-5.166-13.56-16.205-15.068-16.205-15.068
				c-21.459,28.623-74.158,11.06-72.413,49.774c80.139-0.497,113.444,0,113.444,0c-0.105-8.892-1.69-29.997-3.539-38.259
				l-4.176,0.741L1857.446,1905.828z"/>
			<path style="fill:#F37A50;" d="M1734.534,1907.285l-22.615,1.55l-13.006-13.854c1.018-0.959,3.477-18.112,3.637-30.314
				l38.124,1.695C1739.532,1878.781,1737.282,1895.104,1734.534,1907.285z"/>
			<path style="fill:#E62552;" d="M1714.375,1905.828c-5.165-13.56-16.204-15.068-16.204-15.068
				c-21.459,28.623-74.158,11.06-72.414,49.774c80.139-0.497,113.445,0,113.445,0c-0.105-8.892-1.69-29.997-3.539-38.259
				l-4.176,0.741L1714.375,1905.828z"/>
			<path style="fill:#0E6A41;" d="M1963.264,1529.088c-61.743,8.311-235.677,72.767-245.371,84.429
				c-20.024,24.089-9.469,155.151-18.979,263.302l50.555,2.986c24.217-88.074,22.287-126.088,33.238-227.107
				c0,0,198.713,14.884,270.518-33.584C2127.257,1569.143,2013.192,1517.247,1963.264,1529.088z"/>
			<path style="fill:#DE623C;" d="M1882.799,1400.693c14.591,2.49,20.212,14.195,23.73,35.757
				c-55.587,32.747-138.173,35.078-138.173,35.078l-26.322-13.018C1742.034,1458.511,1808.255,1434.66,1882.799,1400.693z"/>
			<path style="fill:#DE623C;" d="M2034.802,1339.066c-24.328,35.35-117.523,111.37-132.951,113.768l-18.688-52.307
				c0,0,90.991-98.483,107.556-115.889C2019.332,1254.433,2074.63,1281.428,2034.802,1339.066z"/>
			<path style="fill:#FF4F78;" d="M1932.313,1333.41c19.509-21.02,44.916-68.465,77.979-65.092
				c33.061,3.374,35.451,38.459,25.484,57.352s-44.377,65.448-44.377,65.448L1932.313,1333.41z"/>
			<path style="fill:#F37A50;" d="M1938.304,1422.34c14.011,4.826,22.012,48.971,18.08,52.348
				c-60.08,23.796-185.084-1.939-185.084-1.939l-6.637-22.639C1764.663,1450.109,1859.313,1444.314,1938.304,1422.34z"/>
			<path style="fill:#E62552;" d="M2135.979,1566.197c-13.739-70.881-19.66-96.002-25.367-129.361
				c-14.104-82.443,27.364-140.387-43.729-179.899l-51.819,8.354c-41.898,44.08-67.693,84.092-69.904,111.73
				c-3.04,35.652,32.339,55,32.339,55l-14.234,97.066c0,0-3.35,7.926,55.081,18.963
				C2076.773,1559.088,2135.979,1566.197,2135.979,1566.197z"/>
			<path style="fill:#F37A50;" d="M2093.386,1349.123c-24.328,35.76-128.279,126.639-143.899,127.444l-11.183-54.228
				c0,0,94.435-110.668,110.999-128.275C2077.916,1263.51,2133.214,1290.817,2093.386,1349.123z"/>
			<path style="fill:#FF4F78;" d="M1994.006,1349.373c18.151-26.413,54.772-75.146,87.833-71.772
				c33.062,3.374,35.452,38.459,25.485,57.352c-9.966,18.892-44.378,65.448-44.378,65.448L1994.006,1349.373z"/>
			<path style="fill:#F37A50;" d="M1764.663,1450.109c-19.112-4.698-60.665-18.659-77.396,25.104
				c4.197,8.033,19.58-11.797,26.189-13.635c10.489-2.916,19.488,2.596,27.428,10.185c11.385,10.88,30.416,0.985,30.416,0.985
				L1764.663,1450.109z"/>
			<g>
				<path style="fill:#FF4F78;" d="M1749.792,1500.957H1570.26v-24.105h203.638l0,0
					C1773.897,1490.164,1763.105,1500.957,1749.792,1500.957z"/>
				<path style="fill:#FF4F78;" d="M1477.944,1349.52l92.316,151.438l21.338-11.217l-103.533-172.776l0,0
					C1476.281,1323.159,1471.749,1337.734,1477.944,1349.52z"/>
			</g>
			<path style="fill:#F37A50;" d="M2090.597,1189.404c-8.729,36.459-39.021,60.458-67.656,53.602s-44.772-41.972-36.043-78.432
				c8.73-36.461,39.021-60.459,67.657-53.602C2083.19,1117.828,2099.328,1152.943,2090.597,1189.404z"/>
			<path style="fill:#F37A50;" d="M2076.726,1208.607l-47.588,29.498c0,0-4.223,21.032-6.33,27.856
				c-4.35,14.081,12.314,20.234,26.402,11.469s17.673-20.492,17.673-20.492L2076.726,1208.607z"/>
			<path style="fill:#2C2858;" d="M1983.622,1150.65c13.523,1.164,42.821-1.185,53.506-13.854
				c7.617,25.725,39.996,50.211,66.779,61.693c1.074-26.395,0.878-74.949-46.436-95.121
				C2020.302,1087.521,1983.622,1150.65,1983.622,1150.65z"/>
			<path d="M2000.317,1174.151c-1.261,2.531-4.335,3.562-6.867,2.301c-2.531-1.261-3.561-4.335-2.3-6.867
				c1.261-2.531,4.335-3.561,6.866-2.301C2000.548,1168.545,2001.579,1171.62,2000.317,1174.151z"/>
			<path d="M2040.538,1184.074c-1.365,2.74-4.693,3.854-7.434,2.49c-2.74-1.365-3.855-4.693-2.49-7.434s4.693-3.855,7.434-2.49
				S2041.903,1181.333,2040.538,1184.074z"/>
			<g>
				<path style="fill:#2C2858;" d="M2046.667,1179.483c-0.379-0.188-0.697-0.503-0.889-0.915
					c-2.777-5.993-10.283-7.161-10.359-7.172c-1.051-0.154-1.781-1.131-1.631-2.184c0.152-1.051,1.123-1.781,2.176-1.633
					c0.393,0.055,9.642,1.447,13.313,9.367c0.447,0.967,0.027,2.111-0.938,2.561
					C2047.784,1179.764,2047.173,1179.735,2046.667,1179.483z"/>
			</g>
			<g>
				<path style="fill:#2C2858;" d="M1989.149,1166.729c-0.186-0.093-0.358-0.216-0.512-0.371c-0.748-0.757-0.741-1.978,0.016-2.726
					c5.881-5.811,13.129-3.4,13.434-3.295c1.004,0.346,1.541,1.443,1.193,2.45c-0.346,1.003-1.438,1.538-2.441,1.196
					c-0.238-0.078-5.34-1.695-9.476,2.391C1990.762,1166.969,1989.866,1167.087,1989.149,1166.729z"/>
			</g>
			<path style="fill:#DE623C;" d="M2003.61,1185.287c-2.809,2.891-5.273,5.869-7.956,7.56c-0.904,0.569-1.194,1.772-0.669,2.704
				c2.168,3.842,8.494,7.006,12.373,8.654c0.566,0.24,1.031-0.501,0.568-0.906c-3.916-3.435-5.598-5.963-6.305-7.352
				c-0.351-0.689-0.342-1.502,0.008-2.191c0.803-1.587,2.402-4.821,3.483-7.5C2005.487,1185.332,2004.306,1184.572,2003.61,1185.287
				z"/>
			<path style="fill:#F37A50;" d="M2076.817,1189.637c-6.958,5.413-9.008,14.418-4.577,20.112s13.663,5.922,20.62,0.509
				c6.959-5.414,9.008-14.418,4.578-20.113C2093.008,1184.45,2083.776,1184.223,2076.817,1189.637z"/>
			<g>
				<path style="fill:#DE623C;" d="M2080.778,1208.096c-0.26-0.13-0.493-0.32-0.68-0.567c-2.672-3.554-2.923-7.548-0.672-10.684
					c2.305-3.21,6.586-4.679,10.177-3.493c1.011,0.336,1.56,1.425,1.226,2.436s-1.424,1.559-2.436,1.226
					c-1.967-0.65-4.53,0.264-5.835,2.08c-1.253,1.745-1.032,3.919,0.622,6.119c0.639,0.851,0.469,2.06-0.383,2.699
					C2082.194,1208.364,2081.411,1208.41,2080.778,1208.096z"/>
			</g>
			<path style="fill:#3F964F;" d="M2032.347,1540.354c-61.742,8.311-235.938,64.767-245.633,76.429
				c-20.023,24.089,24.555,127.241,38.814,260.036h59.599c-0.623-94.62,6.935-181.664-22.181-212.512
				c0,0,166.967-11.143,250.203-11.143C2155.578,1653.164,2179.06,1509.788,2032.347,1540.354z"/>
			<path style="fill:#FFFFFF;" d="M2001.007,1215.968c-0.824-1.112,0.068-2.665,1.442-2.499c3.493,0.42,9.269,0.994,14.78,1
				c5.514,0.006,11.289-0.557,14.783-0.97c1.375-0.163,2.264,1.392,1.438,2.502c-2.538,3.416-7.781,8.599-16.231,8.591
				C2008.77,1224.583,2003.538,1219.389,2001.007,1215.968z"/>
		</g>
	</g>
	<g>
		<path style="fill:#3F964F;" d="M1417.522,750.302c0,9.041-1.547,17.793-4.453,26.102c-14.536,41.741-63.07,72.399-120.717,72.399
			c-57.638,0-106.172-30.659-120.706-72.399c-2.907-8.309-4.454-17.061-4.454-26.102H1417.522z"/>
		<path style="fill:#0E6A41;" d="M1417.522,750.302c0,9.041-1.547,17.793-4.453,26.102h-241.423
			c-2.907-8.309-4.454-17.061-4.454-26.102H1417.522z"/>
		<path style="fill:#FFE91D;" d="M1554.472,328.052c0-144.637-117.15-261.912-261.739-262.116
			c-142.607-0.202-259.895,114.723-262.45,257.307c-1.118,62.363,19.553,119.858,54.903,165.39
			c44.729,57.61,69.553,128.174,69.553,201.109v1.29h275.233v-1.285c0-73.04,25.01-143.608,69.736-201.352
			C1534.038,444.076,1554.472,388.453,1554.472,328.052z"/>
		<g>
			<path style="fill:#FFFFFF;" d="M1332.011,661.366c-0.73,0-1.474-0.12-2.203-0.374c-3.495-1.218-5.342-5.037-4.125-8.532
				c0.31-0.889,31.215-89.943,53.674-180.624c39.811-160.732,19.325-186.859,8.67-190.631
				c-31.328-11.092-56.273,5.316-71.683,21.034c-4.526,4.617-8.87,9.831-12.957,15.515c6.688,11.574,12.725,24.36,17.78,37.869
				c13.881,37.082,17.57,71.718,9.869,92.651c-5.94,16.148-18.569,24.336-35.559,23.059c-16.029-1.207-27.756-10.487-33.912-26.837
				c-7.061-18.752-6.148-46.326,2.502-75.65c5.462-18.517,13.635-36.33,23.53-51.682c-9.242-14.624-19.943-27.205-31.559-35.672
				c-17.248-12.573-33.448-13.122-48.15-1.629c-30.354,23.73-31.517,95.095-3.359,206.382
				c21.707,85.798,53.56,165.122,53.879,165.912c1.385,3.433-0.275,7.336-3.707,8.721c-3.431,1.385-7.336-0.274-8.721-3.706
				c-0.322-0.798-32.476-80.854-54.413-167.518c-30.013-118.566-27.299-192.703,8.068-220.35
				c19.428-15.187,42.263-14.704,64.298,1.358c11.044,8.051,21.958,20.117,31.854,34.877c3.517-4.56,7.191-8.81,10.987-12.682
				c25.641-26.153,56.085-34.779,85.725-24.285c18.453,6.534,26.023,31.37,23.143,75.93c-2.125,32.864-9.963,76.815-23.295,130.633
				c-22.611,91.273-53.697,180.839-54.008,181.733C1337.376,659.633,1334.783,661.366,1332.011,661.366z M1295.227,330.293
				c-7.577,12.865-13.879,27.337-18.306,42.343c-7.727,26.195-8.779,51.293-2.813,67.136c4.305,11.435,11.624,17.386,22.376,18.196
				c11.092,0.835,18.073-3.716,21.976-14.322C1327.339,419.507,1316.559,370.203,1295.227,330.293z"/>
		</g>
		<path style="fill:#3F964F;" d="M1406.757,758.875h-228.804c-27.276,0-49.388-22.111-49.388-49.388v-2.074
			c0-27.275,22.111-49.388,49.388-49.388h228.804c27.276,0,49.389,22.112,49.389,49.388v2.074
			C1456.146,736.764,1434.033,758.875,1406.757,758.875z"/>
		<path style="fill:#FFE91D;" d="M1737.651,338.829h-85.703c-12.197,0-22.086-9.89-22.086-22.088l0,0
			c0-12.199,9.889-22.087,22.086-22.087h85.703c12.198,0,22.087,9.888,22.087,22.087l0,0
			C1759.738,328.939,1749.85,338.829,1737.651,338.829z"/>
		<path style="fill:#FFE91D;" d="M932.762,338.829h-85.703c-12.198,0-22.087-9.89-22.087-22.088l0,0
			c0-12.199,9.889-22.087,22.087-22.087h85.703c12.198,0,22.087,9.888,22.087,22.087l0,0
			C954.849,328.939,944.96,338.829,932.762,338.829z"/>
		<path style="fill:#FFE91D;" d="M987.227,157.499l-68.202-51.897c-9.708-7.386-11.589-21.245-4.202-30.953l0,0
			c7.387-9.708,21.245-11.589,30.952-4.202l68.202,51.897c9.708,7.387,11.589,21.245,4.202,30.953l0,0
			C1010.792,163.005,996.934,164.886,987.227,157.499z"/>
		<path style="fill:#FFE91D;" d="M1593.114,157.499l68.203-51.897c9.707-7.386,11.588-21.245,4.201-30.953l0,0
			c-7.387-9.708-21.244-11.589-30.952-4.202l-68.202,51.897c-9.707,7.387-11.589,21.245-4.201,30.953l0,0
			C1569.549,163.005,1583.407,164.886,1593.114,157.499z"/>
		<path style="fill:#FFE91D;" d="M987.227,503.372l-68.202,51.897c-9.708,7.387-11.589,21.245-4.202,30.952l0,0
			c7.387,9.708,21.245,11.588,30.952,4.202l68.202-51.897c9.708-7.388,11.589-21.245,4.202-30.953l0,0
			C1010.792,497.866,996.934,495.985,987.227,503.372z"/>
		<path style="fill:#FFE91D;" d="M1593.114,503.372l68.203,51.897c9.707,7.387,11.588,21.245,4.201,30.952l0,0
			c-7.387,9.708-21.244,11.588-30.952,4.202l-68.202-51.897c-9.707-7.388-11.589-21.245-4.201-30.953l0,0
			C1569.549,497.866,1583.407,495.985,1593.114,503.372z"/>
	</g>
	<g id="c_24_">
		<path d="M582.421,1563.777c20.038,27.647,69.247,10.683,67.618,48.077c-74.832-0.479-105.933,0-105.933,0
			c0.099-8.589,1.578-28.974,3.304-36.954L582.421,1563.777z"/>
		<path d="M484.025,1564.502c20.038,27.647,69.247,10.684,67.618,48.077c-74.832-0.48-105.932,0-105.932,0
			c0.098-8.589,1.577-28.974,3.303-36.954L484.025,1564.502z"/>
		<path style="fill:#062440;" d="M617.063,1141.693c0,0,12.149,177.2,7.214,216.597c-4.937,39.396-22.413,89.901-20.433,220.208
			c-24.394,6.106-59.737,0-59.737,0s-5.239-147.342,20.548-213.153c-10.485-63.926-44.135-210.342-44.135-210.342L617.063,1141.693z
			"/>
		<path style="fill:#2C2858;" d="M584.455,1146.538c0,0-24.533,198.936-36.542,236.669c-12.009,37.733-22.46,65.374-44.202,193.742
			c-25.069,1.255-61.276,0.478-61.276,0.478s3.277-159.043,42.32-196.073c1.321-64.825-6.313-233.539-6.313-233.539
			L584.455,1146.538z"/>
		<g id="c_25_">
			<path style="fill:#2C2858;" d="M516.394,928.512c-40.037-1.974-30.331-51.745-30.331-51.745
				c-5.661-2.377-14.398-9.617-10.773-20.512c3.068-9.225,12.28-7.852,14.581-18.785c1.846-8.772-3.686-24.026,24.791-22.865
				c0,0,2.354-16.415,19.752-18.646c21.332-2.736,26.577,3.188,35.489,6.355c9.953,3.537,32.843-3.644,33.329,20.269
				c0,0,14.537,1.805,20.17,13.083c5.248,10.508,0.319,22.768-4.342,26.988c0,0,11.283,5.155,12.856,16.494
				c1.054,7.603-2.803,16.902-10.662,20.815c-5,2.488-9.494,2.314-9.494,2.314c-4.852,0.299,0.021,10.81-10.888,15.094
				c-7.322,2.876-14.759,5.345-22.436,6.81L516.394,928.512z"/>
			<g>
				<g>
					<g>
						<g>
							<g>
								<g>
									<path style="fill:#DE623C;" d="M613.063,923.682c-2.32,5.095-6.801,11.212-4.199,18.099l-17.597,4.59
										c-1.898-17.302-3.166-37.605,0.064-43.877c2.732-5.303,3.081-8.217,4-8.254c0.919-0.037,6.274,1.159,3.144,9.26
										c-3.929,10.165,7.079,7.879,10.106-15.368c0.758-5.821,7.974-13.7,9.766-8.512
										C620.321,885.336,623.623,900.501,613.063,923.682z"/>
								</g>
							</g>
						</g>
					</g>
				</g>
			</g>
			<polygon id="v-2_7_" style="fill:#F37A50;" points="543.979,917.946 544.004,917.946 558.252,925.591 570.813,969.656 
				545.296,983.128 518.086,969.808 513.521,907.782 			"/>
			<g>
				<path style="fill:#F37A50;" d="M505.276,872.793c-2.575,36.118,25.514,69.539,53.881,71.561
					c28.367,2.023,46.27-28.119,48.846-64.237c2.575-36.118-18.334-67.037-46.701-69.06
					C532.935,809.035,507.852,836.675,505.276,872.793z"/>
				<path d="M584.102,884.065c0.652,2.652,3.331,4.274,5.984,3.622c2.652-0.651,4.273-3.331,3.622-5.983
					c-0.652-2.653-3.331-4.274-5.984-3.622C585.071,878.735,583.45,881.414,584.102,884.065z"/>
				<path d="M546.331,884.021c0.706,2.872,3.606,4.628,6.477,3.921c2.871-0.706,4.627-3.605,3.921-6.477
					c-0.706-2.871-3.607-4.626-6.477-3.921C547.381,878.25,545.626,881.15,546.331,884.021z"/>
				<path style="fill:#DE623C;" d="M571.965,884.087c4.353,7.318,9.877,16.253,9.877,16.253s-2.81,7.556-12.856,7.441
					c4.291-1.664,8.558-4.433,6.95-10.138C574.327,891.938,571.965,884.087,571.965,884.087z"/>
				<g>
					<path style="fill:#201D40;" d="M598.354,872.213c0.07,0.163,0.123,0.338,0.155,0.521c0.223,1.262-0.62,2.464-1.882,2.687
						c-3.445,0.607-10.712,0.043-13.555-6.437c-0.501-1.189,0.019-2.542,1.192-3.056c1.174-0.514,2.542,0.019,3.057,1.193
						c2.106,4.797,8.437,3.742,8.501,3.731C596.9,870.661,597.937,871.25,598.354,872.213z"/>
				</g>
				<g>
					<path style="fill:#201D40;" d="M536.485,870.171c-0.09,0.167-0.161,0.347-0.212,0.539c-0.348,1.318,0.44,2.668,1.758,3.015
						c3.599,0.948,11.352,0.993,14.937-5.624c0.637-1.216,0.205-2.696-0.993-3.346c-1.198-0.649-2.696-0.204-3.346,0.994
						c-2.655,4.899-9.274,3.221-9.34,3.203C538.162,868.656,537.012,869.187,536.485,870.171z"/>
				</g>
				<path style="fill:#2C2858;" d="M619.54,860.675l-19.2-34.427l-40.73-21.537l-62.645,28.883l13.791,47.625
					c2.871-22.22,13.483-17.614,20.887-23.768c7.505-6.237,11.161-16.399,27.523-6.392c0,0,14.162-8.693,20.479,4.936
					c4.885,10.539,14.071,6.841,21.382,7.763c8.622,1.089,5.252,12.318,10.556,12.323L619.54,860.675z"/>
				<g>
					<path style="fill:#F37A50;" d="M513.534,870.808c4.858,6.993,4.158,15.885-1.564,19.86c-5.723,3.976-14.301,1.53-19.159-5.463
						c-4.857-6.992-4.157-15.885,1.566-19.86C500.099,861.369,508.677,863.815,513.534,870.808z"/>
					<g>
						<path style="fill:#DE623C;" d="M504.572,886.688c0.276-0.045,0.548-0.152,0.79-0.328c3.486-2.508,4.866-6.119,3.692-9.656
							c-1.201-3.624-4.725-6.209-8.377-6.148c-1.029,0.018-1.848,0.865-1.831,1.892c0.018,1.029,0.865,1.848,1.893,1.831
							c2-0.034,4.101,1.546,4.78,3.596c0.654,1.969-0.175,3.91-2.333,5.463c-0.835,0.601-1.024,1.764-0.424,2.598
							C503.19,886.529,503.898,886.796,504.572,886.688z"/>
					</g>
				</g>
				<g>
					<path style="fill:#DE623C;" d="M582.881,925.648c-0.309,0-0.62-0.078-0.906-0.241c-16.156-9.214-28.444-0.22-28.566-0.127
						c-0.809,0.608-1.957,0.445-2.565-0.363s-0.445-1.958,0.363-2.565c0.577-0.435,14.358-10.522,32.584-0.128
						c0.878,0.5,1.185,1.62,0.684,2.499C584.135,925.315,583.517,925.648,582.881,925.648z"/>
				</g>
			</g>
			<g id="v_6_">
				<path style="fill:#3F964F;" d="M474.98,1171.857c20.267,7.883,59.656,10.459,81.137,10.459c31.331,0,48.132-2.293,62.777-12.14
					c-0.186-49.065-3.678-159.905-23.202-212.542c0,0-13.887-6.515-30.313-7.043c0,0-3.373,38.497-45.965-2.721
					c-18.222-6.935-51.858,4.136-51.858,4.136C440.139,982.631,460.864,1115.721,474.98,1171.857z"/>
			</g>
			<g>
				<g>
					<path style="fill:#0E6A41;" d="M509.594,1062.857c-5.409,8.365-8.403,55.066-4.923,55.223
						c43.234,10.875,120.205-80.702,120.205-80.702l-11.278-20.884C613.599,1016.494,563.058,1032.783,509.594,1062.857z"/>
					<path style="fill:#0E6A41;" d="M456.289,994.736c7.112,28.191,22.646,100.661,48.382,123.344l24.319-43.147
						c0,0-7.944-83.447-26.167-115.002C488.751,935.561,444.591,948.732,456.289,994.736z"/>
				</g>
			</g>
			<path style="fill:#0E6A41;" d="M610.205,938.951c0,0,71.617,127.785,20.148,163.384c-20.159-3.431-30.097-26.935-33.026-56.186
				c-5.544-55.362-8.979-102.513-8.979-102.513L610.205,938.951z"/>
		</g>
	</g>
	<g>
		<g>
			<path d="M249.72,1031.146c-40.741,22.566-74.276,121.128,55.609,223.044c100.439,78.811,172.118,51.167,197.029,8.619
				c18.815-32.136,31.282-67.004-38.189-143.974C394.698,1041.864,318.235,993.198,249.72,1031.146z"/>
			<path style="fill:#4364CC;" d="M239.551,1260.137c0,0-55.011,3.22-110.811-36.775c6.988-37.746,42.783-40.58,42.783-40.58
				l78.197,15.267c0,0,5.938,0.308,12.267,26.151C267.498,1246.709,239.551,1260.137,239.551,1260.137z"/>
			<path style="fill:#F37A50;" d="M214.117,1099.902c0,0-21.607,53.67-34.067,85.621c-4.945,12.68-22.884,47.132-49.135,39.59
				c-26.576-18.733,6.711-79.954,71.851-135.588C210.733,1097.655,214.117,1099.902,214.117,1099.902z"/>
			<g>
				<g>
					<g>
						<path style="fill:#F37A50;" d="M284.9,1168.907l33.409-5.004l-2.661,31.012c0,0-16.921,30.49-32.975,25.239
							s-8.224-18.721-8.224-18.721L284.9,1168.907z"/>
					</g>
				</g>
			</g>
			<g>
				<path style="fill:#F37A50;" d="M345.038,1118.594c-5.43,36.64-33.159,62.885-61.936,58.621
					c-28.776-4.265-47.703-37.424-42.273-74.063c5.43-36.64,33.159-62.886,61.936-58.621
					C331.54,1048.795,350.467,1081.955,345.038,1118.594z"/>
				<g>
					<path d="M312.658,1105.088c-0.376-0.181-0.814-0.24-1.252-0.14c-6.36,1.463-11.818-3.688-11.873-3.74
						c-0.757-0.727-1.962-0.706-2.69,0.05c-0.729,0.756-0.711,1.956,0.041,2.688c0.281,0.272,6.971,6.648,15.376,4.715
						c1.025-0.236,1.665-1.258,1.43-2.283C313.555,1105.79,313.162,1105.33,312.658,1105.088z"/>
				</g>
				<g>
					<path d="M250.063,1105.003c-0.116,0.167-0.208,0.356-0.268,0.563c-0.291,1.012,0.293,2.066,1.304,2.357
						c7.85,2.256,12.995-3.264,13.21-3.499c0.707-0.776,0.652-1.982-0.124-2.69c-0.775-0.707-1.976-0.653-2.685,0.117
						c-0.169,0.181-3.828,3.998-9.349,2.411C251.348,1104.031,250.516,1104.354,250.063,1105.003z"/>
				</g>
				<path style="fill:#DE623C;" d="M276.152,1123.155c-2.396,2.942-4.46,5.938-6.835,7.745c-0.801,0.609-0.973,1.761-0.404,2.59
					c2.35,3.424,8.543,5.867,12.315,7.092c0.552,0.18,0.926-0.555,0.458-0.896c-3.954-2.896-5.74-5.128-6.518-6.371
					c-0.386-0.618-0.444-1.38-0.174-2.057c0.622-1.553,1.854-4.718,2.646-7.317C277.915,1123.042,276.744,1122.428,276.152,1123.155
					z"/>
				<path d="M356.75,1115.239c-34.035-1.541-78.798-32.954-84.208-50.201c4.645-21.701,21.755-33.964,42.192-25.901
					C335.171,1047.198,368.655,1087.396,356.75,1115.239z"/>
				<path d="M280.316,1073.759c0,0-20.255,20.586-40.766,25.289c7.179-24.011,12.307-42.215,24.613-48.111
					c12.307-5.896,25.895-6.923,25.895-6.923L280.316,1073.759z"/>
				<g>
					<path style="fill:#F37A50;" d="M337.082,1112.903c-6.379,5.932-7.614,14.972-2.761,20.191c4.855,5.22,13.96,4.643,20.338-1.288
						c6.379-5.932,7.614-14.971,2.761-20.191C352.565,1106.396,343.46,1106.973,337.082,1112.903z"/>
					<g>
						<path style="fill:#DE623C;" d="M342.581,1130.727c-0.267-0.104-0.514-0.271-0.718-0.499
							c-2.939-3.266-3.532-7.176-1.588-10.456c1.989-3.359,6.074-5.176,9.712-4.32c1.023,0.242,1.658,1.268,1.417,2.291
							s-1.267,1.658-2.29,1.417c-1.993-0.47-4.437,0.652-5.563,2.554c-1.082,1.826-0.676,3.945,1.144,5.968
							c0.703,0.781,0.639,1.986-0.144,2.689C343.998,1130.869,343.231,1130.981,342.581,1130.727z"/>
					</g>
				</g>
				<path d="M305.022,1115.362c0,2.649-2.148,4.799-4.798,4.799c-2.65,0-4.799-2.15-4.799-4.799c0-2.65,2.148-4.799,4.799-4.799
					C302.874,1110.563,305.022,1112.712,305.022,1115.362z"/>
				<path d="M265.386,1115.362c0,2.649-2.148,4.799-4.798,4.799c-2.65,0-4.799-2.15-4.799-4.799c0-2.65,2.148-4.799,4.799-4.799
					C263.237,1110.563,265.386,1112.712,265.386,1115.362z"/>
				<path style="fill:#FFFFFF;" d="M290.545,1157.437c0,5.317-4.31,9.628-9.629,9.628c-5.317,0-9.628-4.311-9.628-9.628
					s4.311-9.628,9.628-9.628C286.234,1147.809,290.545,1152.119,290.545,1157.437z"/>
			</g>
			<g>
				<path style="fill:#F37A50;" d="M530.736,1697.291c0,0-94.595-61.119-159.367-60.926c-0.051,9.788-45.935,29.243-50.548,38.508
					c39.987,15.843,191.915,43.22,199.085,49.68c4.773,4.299,27.491,22.032,35.712,50.858c0,0,10.84,11.385,17.813-2.153
					c3.589-6.964-19.935-79.118-19.935-79.118L530.736,1697.291z"/>
				<path style="fill:#F37A50;" d="M371.369,1636.365c1.126-43.089,0.729-154.412-14.016-227.537l-63.248-14.534l-22.475-5.77
					c0,0-25.687,186.362,49.19,286.349C331.041,1676.505,373.153,1640.941,371.369,1636.365z"/>
				<path style="fill:#E62552;" d="M570.659,1703.028l30.189,20.131l-2.923,5.816l-30.916-13.559
					c-4.609,17.258,16.727,43.434,16.727,43.434c-2.1,12.49-14.359,40.358-24.48,47.052c-10.493-2.897-3.438-30.645-3.438-30.645
					c3.804-0.732,12.998-12.501,12.797-18.623c-4.898-24.875-21.142-44.769-38.516-59.225
					C530.101,1697.41,546.869,1671.841,570.659,1703.028z"/>
			</g>
			<g>
				<path style="fill:#F37A50;" d="M314.999,1861.704c0,0-10.107-145.218-51.585-194.968c-7.57,6.205-51.526,3.938-61.604,6.297
					c24.194,63.49,81.701,175.439,81.302,185.083c-0.265,6.417-4.18,28.565-36.497,49.146c0,0,1.109,18.395,15.983,15.127
					c7.652-1.681,63.157-40.833,63.157-40.833L314.999,1861.704z"/>
				<path style="fill:#F37A50;" d="M263.414,1666.736c15.903-40.063,58.17-141.541,69.524-215.268l-72.263-33.325l-19.11-13.16
					c0,0-35.634,113.989-39.755,268.05C210.843,1678.086,263.511,1671.646,263.414,1666.736z"/>
				<path style="fill:#E62552;" d="M320.154,1901.844l-11.137,34.535l-6.393-1.227l4.614-33.441
					c-17.861,0.271-37.227,27.935-37.227,27.935c-12.589,1.386-42.745-2.81-51.942-10.723
					c-0.074-10.886,28.545-11.662,28.545-11.662c1.741,3.459,15.571,9.097,21.407,7.233c22.597-11.495,37.309-32.547,46.48-53.205
					C314.502,1861.29,343.673,1870.452,320.154,1901.844z"/>
			</g>
			<g>
				<g>
					<g>
						<g>
							<path style="fill:#070635;" d="M423.004,1635.522c-7.872-26.341-8.343-205.981-77.845-257.25l-119.6,12.602
								c-27.639,44.737-42.949,163.677-33.643,259.478C248.149,1670.424,322.206,1667.047,423.004,1635.522z"/>
						</g>
					</g>
				</g>
			</g>
			<g>
				<g>
					<g>
						<path style="fill:#768FDB;" d="M224.101,1361.362c0-26.19-22.7-65.431-11.818-91.871
							c7.925-21.269,23.495-69.253,40.462-72.492c6.886-1.314,15.835-2.699,23.975-2.627c0,0-4.977,22.212,6.228,23.11
							c21.569,1.73,32.905-25.923,32.905-25.923c11.629-1.111,52.186,10.992,52.162,15.373
							c-0.127,34.31-10.043,88.499-19.158,125.593c-1.691,18.889-0.518,33.455,1.373,44.143
							c3.454,11.141,11.039,14.989,11.065,17.397c0,0-88.324,31.068-139.192,3.064
							C222.102,1397.13,224.101,1379.052,224.101,1361.362z"/>
					</g>
				</g>
			</g>
			<g>
				<polygon style="fill:#C4204A;" points="305.517,1391.892 176.986,1433.987 134.624,1262.71 263.154,1220.614 				"/>
				
					<rect x="166.643" y="1241.382" transform="matrix(0.9689 -0.2474 0.2474 0.9689 -321.637 99.8222)" style="fill:#B8C9FF;" width="139.397" height="176.439"/>
				
					<rect x="174.486" y="1256.137" transform="matrix(0.9999 -0.0139 0.0139 0.9999 -18.6615 3.5457)" style="fill:#FFFFFF;" width="142.756" height="177.495"/>
				
					<rect x="148.333" y="1249.881" transform="matrix(0.9861 -0.1664 0.1664 0.9861 -219.6362 54.9412)" style="fill:#E62552;" width="139.396" height="176.438"/>
				
					<rect x="171.994" y="1304.781" transform="matrix(0.9864 -0.1646 0.1646 0.9864 -214.0029 53.3066)" style="fill:#C4204A;" width="85.188" height="25.823"/>
				<polygon style="fill:#FFFFFF;" points="190.139,1250.216 230.927,1222.405 237.496,1238.857 				"/>
				<polygon style="fill:#E3EAFF;" points="207.357,1429.367 214.587,1447.88 263.958,1419.815 				"/>
			</g>
			<g id="c_22_">
				<path style="fill:#F37A50;" d="M285.322,1367.014l-4.865-1.01c0,0-11.417-26.506-22.835-17.513
					c-3.478,2.739,7.178,4.694,7.716,15.466c0.15,3.016-8.363,7.75-26.341-2.824c-16.243-9.031-25.765,18.898,5.498,30.271
					c21.83,7.94,48.535-5.844,48.535-5.844L285.322,1367.014z"/>
			</g>
			<path style="fill:#F37A50;" d="M284.911,1366.948l61.771-34.237c0,0,18.449-15.768,44.316,11.41
				c-6.997,17.734-31.422,35.723-106.411,44.673C285.726,1377.467,284.911,1366.948,284.911,1366.948z"/>
			<path style="fill:#4364CC;" d="M368.014,1206.933c0,0,34.247,53.337,22.984,137.188c-34.467,13.419-44.883-17.129-44.883-17.129
				l-23.863-70.641c0,0-5.551-25.089,12.31-43.356C350.119,1197.082,368.014,1206.933,368.014,1206.933z"/>
			<g>
				<g>
					<g>
						<g>
							<g>
								<path style="fill:#F37A50;" d="M204.541,1076.862c-2.025,5.718-3.466,16.208-8.815,18.85l11.814,11.429
									c18.646-5.332,28.993-28.119,29.886-30.44c2.319-6.033,3.782-8.724,3.094-9.444c-0.688-0.72-5.764-3.816-9.418,4.854
									c-4.588,10.879-11.448,0.813,3.687-19.586c3.789-5.108,4.094-16.68-1.207-13.984
									C227.739,1041.511,213.754,1050.848,204.541,1076.862z"/>
							</g>
						</g>
					</g>
				</g>
			</g>
		</g>
	</g>
</g>
</svg>
